<svg width="217" height="65" viewBox="0 0 217 65" fill="none" xmlns="http://www.w3.org/2000/svg">
<path d="M12.8 32.336C10.688 32.336 8.896 31.9787 7.424 31.264C5.952 30.5493 4.79467 29.5787 3.952 28.352C3.12 27.1147 2.58667 25.7067 2.352 24.128C2.128 22.5493 2.19733 20.9067 2.56 19.2C3.04 16.9173 3.856 15.0027 5.008 13.456C6.17067 11.9093 7.62133 10.7413 9.36 9.952C11.1093 9.16267 13.1093 8.768 15.36 8.768C16.1707 8.768 16.96 8.82133 17.728 8.928C18.496 9.024 19.232 9.168 19.936 9.36C20.6507 9.552 21.3173 9.78133 21.936 10.048C22.5547 10.304 23.1093 10.5973 23.6 10.928L22.784 13.6C21.952 13.024 21.12 12.5707 20.288 12.24C19.456 11.9093 18.6347 11.6747 17.824 11.536C17.0133 11.3973 16.2187 11.328 15.44 11.328C14.2133 11.328 13.0613 11.488 11.984 11.808C10.9067 12.1173 9.93067 12.608 9.056 13.28C8.192 13.9413 7.45067 14.7947 6.832 15.84C6.224 16.8853 5.76533 18.1387 5.456 19.6C5.17867 20.912 5.10933 22.1813 5.248 23.408C5.38667 24.6347 5.75467 25.7387 6.352 26.72C6.94933 27.6907 7.79733 28.464 8.896 29.04C9.99467 29.6053 11.36 29.888 12.992 29.888C13.6 29.888 14.192 29.8613 14.768 29.808C15.344 29.744 15.9147 29.648 16.48 29.52C17.0453 29.392 17.6107 29.2213 18.176 29.008C18.7413 28.7947 19.312 28.5387 19.888 28.24L19.776 31.008C19.36 31.1787 18.8853 31.344 18.352 31.504C17.8293 31.664 17.264 31.808 16.656 31.936C16.0587 32.064 15.4347 32.16 14.784 32.224C14.1333 32.2987 13.472 32.336 12.8 32.336ZM17.024 31.056C17.248 29.936 17.4507 28.9493 17.632 28.096C17.8133 27.232 17.9947 26.3787 18.176 25.536C18.3893 24.5227 18.576 23.6373 18.736 22.88C18.896 22.112 19.0613 21.3333 19.232 20.544H21.984C21.8133 21.3333 21.648 22.112 21.488 22.88C21.328 23.6373 21.1413 24.5227 20.928 25.536C20.7467 26.3787 20.5653 27.2267 20.384 28.08C20.2133 28.9333 20.0107 29.9093 19.776 31.008L17.024 31.056ZM24.7488 32C25.0154 30.7413 25.2714 29.5253 25.5168 28.352C25.7728 27.1787 26.0501 25.8773 26.3488 24.448L27.9488 16.88C28.2581 15.4293 28.5408 14.1067 28.7968 12.912C29.0528 11.7173 29.3141 10.4747 29.5808 9.184H43.7408L43.1968 11.664C42.1301 11.664 40.9888 11.664 39.7728 11.664C38.5568 11.664 37.1221 11.664 35.4688 11.664H30.2848L32.3328 9.584C32.0661 10.8747 31.8048 12.1173 31.5487 13.312C31.3034 14.496 31.0314 15.792 30.7328 17.2L29.2768 24.032C28.9888 25.4187 28.7168 26.704 28.4608 27.888C28.2154 29.0613 27.9594 30.2773 27.6927 31.536L26.6848 29.52H31.9648C33.3621 29.52 34.6794 29.52 35.9168 29.52C37.1648 29.52 38.3648 29.52 39.5168 29.52L38.9728 32H24.7488ZM29.1488 21.648L29.6608 19.232H34.1088C35.5808 19.232 36.8501 19.232 37.9168 19.232C38.9834 19.232 40.0074 19.232 40.9888 19.232L40.4928 21.648C39.4368 21.648 38.3754 21.648 37.3088 21.648C36.2528 21.648 34.9994 21.648 33.5488 21.648H29.1488ZM41.7327 32C42.4474 30.7627 43.1888 29.4667 43.9568 28.112C44.7354 26.7467 45.4768 25.4507 46.1808 24.224L50.6448 16.384C51.4021 15.04 52.1061 13.8027 52.7568 12.672C53.4074 11.5307 54.0688 10.368 54.7408 9.184H58.5968C58.7674 10.3253 58.9381 11.4667 59.1088 12.608C59.2794 13.7493 59.4661 15.0187 59.6688 16.416L60.8208 24.272C61.0021 25.5307 61.1941 26.832 61.3968 28.176C61.5994 29.52 61.7861 30.7947 61.9568 32H59.0768C58.9061 30.6773 58.7248 29.312 58.5328 27.904C58.3408 26.4853 58.1541 25.1307 57.9728 23.84L56.3568 11.792H56.0848L49.4288 23.792C48.6928 25.1147 47.9354 26.48 47.1568 27.888C46.3781 29.2853 45.6154 30.656 44.8688 32H41.7327ZM47.1888 26.272L47.8928 24H59.4608L59.1888 26.272H47.1888ZM65.8738 32C66.1511 30.7413 66.4124 29.5253 66.6578 28.352C66.9031 27.1787 67.1751 25.8827 67.4738 24.464L69.0738 16.864C69.3938 15.4027 69.6764 14.0747 69.9218 12.88C70.1778 11.6853 70.4391 10.4533 70.7058 9.184C71.3138 9.184 71.9858 9.184 72.7218 9.184C73.4578 9.184 74.2684 9.184 75.1538 9.184C76.0391 9.184 77.0151 9.184 78.0818 9.184C79.8204 9.184 81.2391 9.46667 82.3378 10.032C83.4364 10.5973 84.1938 11.3973 84.6098 12.432C85.0364 13.4667 85.1004 14.6827 84.8018 16.08C84.5351 17.3813 84.0818 18.4907 83.4418 19.408C82.8018 20.3253 81.8684 21.024 80.6418 21.504C79.4258 21.984 77.7991 22.2133 75.7618 22.192L76.8498 20.96L79.5218 25.472C79.9378 26.1653 80.3804 26.9067 80.8498 27.696C81.3191 28.4747 81.7778 29.2427 82.2257 30C82.6738 30.7467 83.0684 31.4133 83.4097 32H80.1298C79.5751 31.04 79.0418 30.1173 78.5298 29.232C78.0178 28.336 77.5111 27.4507 77.0098 26.576L74.0017 21.248L75.5218 22.736H70.1138L70.6258 20.352H75.3778C76.6898 20.352 77.7778 20.2293 78.6418 19.984C79.5058 19.728 80.1884 19.2853 80.6898 18.656C81.1911 18.0267 81.5591 17.1413 81.7938 16C81.9964 15.0933 81.9964 14.352 81.7938 13.776C81.6018 13.2 81.2818 12.752 80.8338 12.432C80.3858 12.112 79.8738 11.8933 79.2978 11.776C78.7324 11.648 78.1618 11.584 77.5858 11.584H71.1218L73.4578 9.6C73.1911 10.88 72.9298 12.112 72.6737 13.296C72.4284 14.48 72.1564 15.776 71.8578 17.184L70.3058 24.48C70.0178 25.888 69.7458 27.1787 69.4898 28.352C69.2444 29.5147 68.9884 30.7307 68.7218 32H65.8738Z" fill="#E01212"/>
<rect x="92" width="115" height="43" fill="#E01212"/>
<path d="M98.28 32C98.5467 30.7413 98.8027 29.5253 99.048 28.352C99.304 27.168 99.5813 25.8667 99.88 24.448L101.48 16.864C101.8 15.4133 102.083 14.0853 102.328 12.88C102.584 11.6747 102.845 10.4427 103.112 9.184H105.768C106.707 11.1253 107.613 13.008 108.488 14.832C109.373 16.656 110.232 18.4427 111.064 20.192L114.472 27.296H114.712L116.952 16.848C117.261 15.3973 117.544 14.0747 117.8 12.88C118.056 11.6853 118.317 10.4533 118.584 9.184H121.32C121.053 10.4533 120.792 11.6853 120.536 12.88C120.291 14.0747 120.008 15.3973 119.688 16.848L118.088 24.448C117.789 25.8667 117.512 27.168 117.256 28.352C117.011 29.5253 116.755 30.7413 116.488 32H113.912C113.123 30.3573 112.291 28.64 111.416 26.848C110.552 25.056 109.603 23.088 108.568 20.944L105.096 13.792H104.856L102.616 24.448C102.317 25.888 102.045 27.1893 101.8 28.352C101.555 29.504 101.299 30.72 101.032 32H98.28ZM122.405 32C122.672 30.7413 122.928 29.5253 123.173 28.352C123.429 27.1787 123.706 25.8773 124.005 24.448L125.605 16.88C125.914 15.4293 126.197 14.1067 126.453 12.912C126.709 11.7173 126.97 10.4747 127.237 9.184H141.397L140.853 11.664C139.786 11.664 138.645 11.664 137.429 11.664C136.213 11.664 134.778 11.664 133.125 11.664H127.941L129.989 9.584C129.722 10.8747 129.461 12.1173 129.205 13.312C128.96 14.496 128.688 15.792 128.389 17.2L126.933 24.032C126.645 25.4187 126.373 26.704 126.117 27.888C125.872 29.0613 125.616 30.2773 125.349 31.536L124.341 29.52H129.621C131.018 29.52 132.336 29.52 133.573 29.52C134.821 29.52 136.021 29.52 137.173 29.52L136.629 32H122.405ZM126.805 21.648L127.317 19.232H131.765C133.237 19.232 134.506 19.232 135.573 19.232C136.64 19.232 137.664 19.232 138.645 19.232L138.149 21.648C137.093 21.648 136.032 21.648 134.965 21.648C133.909 21.648 132.656 21.648 131.205 21.648H126.805ZM139.629 32C140.472 30.976 141.341 29.9253 142.237 28.848C143.144 27.7707 144.082 26.6453 145.053 25.472L149.725 19.856L149.533 20.72L147.453 16.048C146.984 14.9813 146.498 13.8933 145.997 12.784C145.506 11.6747 144.973 10.4747 144.397 9.184H147.549C148.008 10.2187 148.45 11.232 148.877 12.224C149.314 13.216 149.725 14.1547 150.109 15.04L151.581 18.448H151.869L154.717 14.992C155.464 14.096 156.242 13.152 157.053 12.16C157.874 11.168 158.696 10.176 159.517 9.184H163.037C162.024 10.3893 161.053 11.5413 160.125 12.64C159.208 13.7387 158.349 14.768 157.549 15.728L153.213 20.928L153.389 20L155.709 24.944C156.296 26.192 156.85 27.3813 157.373 28.512C157.906 29.632 158.456 30.7947 159.021 32H155.773C155.325 31.008 154.893 30.0587 154.477 29.152C154.061 28.2347 153.656 27.36 153.261 26.528L151.373 22.4H151.085L147.645 26.576C146.93 27.4507 146.216 28.3253 145.501 29.2C144.786 30.064 144.013 30.9973 143.181 32H139.629ZM172.452 32.352C170.265 32.352 168.542 31.9093 167.284 31.024C166.036 30.128 165.209 28.944 164.804 27.472C164.409 25.9893 164.398 24.3787 164.772 22.64C164.857 22.2133 164.964 21.696 165.092 21.088C165.22 20.48 165.364 19.8133 165.524 19.088C165.684 18.3627 165.844 17.616 166.004 16.848C166.324 15.408 166.612 14.0853 166.868 12.88C167.124 11.6747 167.385 10.4427 167.652 9.184H170.548C170.281 10.4427 170.02 11.6747 169.764 12.88C169.508 14.0853 169.22 15.4133 168.9 16.864L167.668 22.656C167.39 24.0107 167.358 25.232 167.572 26.32C167.785 27.408 168.302 28.272 169.124 28.912C169.956 29.5413 171.129 29.856 172.644 29.856C174.148 29.856 175.369 29.6 176.308 29.088C177.257 28.5653 177.993 27.8453 178.516 26.928C179.049 26.0107 179.444 24.9493 179.7 23.744L181.172 16.864C181.481 15.424 181.764 14.096 182.02 12.88C182.276 11.664 182.537 10.432 182.804 9.184H185.7C185.433 10.432 185.172 11.664 184.916 12.88C184.66 14.0853 184.377 15.4133 184.068 16.864C183.854 17.8347 183.646 18.8 183.444 19.76C183.241 20.72 183.054 21.5947 182.884 22.384C182.724 23.1733 182.59 23.808 182.484 24.288C182.164 25.8133 181.63 27.184 180.884 28.4C180.137 29.616 179.081 30.5813 177.716 31.296C176.361 32 174.606 32.352 172.452 32.352ZM193.907 32.352C192.712 32.352 191.603 32.24 190.579 32.016C189.555 31.792 188.648 31.5093 187.859 31.168C187.069 30.816 186.44 30.464 185.971 30.112L186.755 27.552C187.384 28 188.056 28.4 188.771 28.752C189.485 29.0933 190.259 29.3653 191.091 29.568C191.933 29.76 192.845 29.856 193.827 29.856C194.637 29.856 195.416 29.7653 196.163 29.584C196.909 29.4027 197.555 29.0667 198.099 28.576C198.643 28.0853 199.021 27.3653 199.235 26.416C199.405 25.616 199.325 24.928 198.995 24.352C198.664 23.7653 198.115 23.2373 197.347 22.768C196.579 22.2987 195.629 21.824 194.499 21.344C193.037 20.736 191.859 20.0907 190.963 19.408C190.077 18.7147 189.469 17.9307 189.139 17.056C188.808 16.1707 188.771 15.136 189.027 13.952C189.251 12.832 189.693 11.888 190.355 11.12C191.027 10.3413 191.907 9.75467 192.995 9.36C194.093 8.96533 195.411 8.768 196.947 8.768C197.651 8.768 198.355 8.832 199.059 8.96C199.773 9.07733 200.456 9.24267 201.107 9.456C201.757 9.65867 202.344 9.88266 202.867 10.128C203.4 10.3627 203.821 10.5973 204.131 10.832L203.299 13.36C202.755 12.912 202.12 12.5333 201.395 12.224C200.669 11.9147 199.939 11.68 199.203 11.52C198.467 11.3493 197.816 11.264 197.251 11.264C196.472 11.264 195.709 11.3493 194.963 11.52C194.227 11.68 193.587 11.9787 193.043 12.416C192.509 12.8427 192.157 13.456 191.987 14.256C191.816 15.024 191.853 15.6853 192.099 16.24C192.355 16.7947 192.84 17.312 193.555 17.792C194.28 18.272 195.277 18.7787 196.547 19.312C198.211 20.016 199.485 20.736 200.371 21.472C201.267 22.208 201.848 22.9973 202.115 23.84C202.381 24.6827 202.408 25.6213 202.195 26.656C201.928 27.8933 201.464 28.9387 200.803 29.792C200.152 30.6347 199.256 31.2747 198.115 31.712C196.984 32.1387 195.581 32.352 193.907 32.352Z" fill="white"/>
<path d="M7.79 62C7.67 61.576 7.54 61.122 7.4 60.638C7.26 60.154 7.13 59.706 7.01 59.294L6.242 56.618C6.106 56.142 5.956 55.62 5.792 55.052C5.628 54.48 5.474 53.944 5.33 53.444H6.53C6.698 54.056 6.872 54.7 7.052 55.376C7.232 56.052 7.404 56.696 7.568 57.308L8.486 60.716H8.588L9.482 57.266C9.586 56.87 9.694 56.454 9.806 56.018C9.922 55.578 10.036 55.14 10.148 54.704C10.264 54.264 10.374 53.844 10.478 53.444H11.738C11.898 54.056 12.066 54.694 12.242 55.358C12.418 56.018 12.588 56.658 12.752 57.278L13.664 60.716H13.766L14.696 57.26C14.856 56.664 15.026 56.028 15.206 55.352C15.386 54.676 15.556 54.04 15.716 53.444H16.922C16.774 53.952 16.618 54.486 16.454 55.046C16.294 55.606 16.144 56.122 16.004 56.594L15.224 59.294C15.1 59.722 14.968 60.178 14.828 60.662C14.692 61.142 14.562 61.588 14.438 62H13.046C12.886 61.412 12.716 60.792 12.536 60.14C12.36 59.488 12.194 58.876 12.038 58.304L11.126 54.968H11.018L10.124 58.304C9.972 58.88 9.808 59.496 9.632 60.152C9.456 60.808 9.29 61.424 9.134 62H7.79ZM18.2664 62C18.2664 61.556 18.2664 61.13 18.2664 60.722C18.2664 60.314 18.2664 59.864 18.2664 59.372V56.078C18.2664 55.574 18.2664 55.084 18.2664 54.608C18.2664 54.132 18.2664 53.668 18.2664 53.216L19.2564 53.096C19.2564 53.572 19.2564 54.056 19.2564 54.548C19.2564 55.036 19.2564 55.546 19.2564 56.078V57.038H19.3644C19.4844 56.87 19.6384 56.698 19.8264 56.522C20.0184 56.346 20.2444 56.2 20.5044 56.084C20.7684 55.964 21.0684 55.904 21.4044 55.904C22.0364 55.904 22.4984 56.086 22.7904 56.45C23.0824 56.814 23.2284 57.342 23.2284 58.034C23.2284 58.294 23.2284 58.524 23.2284 58.724C23.2284 58.924 23.2284 59.14 23.2284 59.372C23.2284 59.844 23.2284 60.29 23.2284 60.71C23.2284 61.126 23.2284 61.556 23.2284 62H22.2384C22.2384 61.556 22.2384 61.128 22.2384 60.716C22.2384 60.3 22.2384 59.866 22.2384 59.414V58.286C22.2384 57.81 22.1524 57.45 21.9804 57.206C21.8124 56.962 21.5064 56.84 21.0624 56.84C20.7944 56.84 20.5504 56.894 20.3304 57.002C20.1104 57.11 19.9104 57.256 19.7304 57.44C19.5544 57.62 19.3964 57.82 19.2564 58.04V59.414C19.2564 59.882 19.2564 60.32 19.2564 60.728C19.2564 61.132 19.2564 61.556 19.2564 62H18.2664ZM27.8333 62.132C27.1213 62.132 26.5353 61.996 26.0753 61.724C25.6153 61.452 25.2733 61.08 25.0493 60.608C24.8253 60.136 24.7133 59.596 24.7133 58.988C24.7133 58.388 24.8233 57.856 25.0433 57.392C25.2633 56.928 25.5793 56.566 25.9913 56.306C26.4033 56.042 26.8953 55.91 27.4673 55.91C27.9713 55.91 28.4033 56.008 28.7633 56.204C29.1273 56.4 29.4073 56.688 29.6033 57.068C29.7993 57.444 29.8973 57.91 29.8973 58.466C29.8973 58.614 29.8933 58.748 29.8853 58.868C29.8813 58.984 29.8693 59.102 29.8493 59.222L28.9793 58.784C28.9873 58.72 28.9913 58.66 28.9913 58.604C28.9953 58.544 28.9973 58.486 28.9973 58.43C28.9973 57.866 28.8573 57.438 28.5773 57.146C28.2973 56.85 27.9313 56.702 27.4793 56.702C27.1153 56.702 26.8013 56.796 26.5373 56.984C26.2773 57.168 26.0753 57.424 25.9313 57.752C25.7873 58.08 25.7153 58.454 25.7153 58.874V59.012C25.7153 59.476 25.7953 59.876 25.9553 60.212C26.1153 60.548 26.3573 60.808 26.6813 60.992C27.0093 61.172 27.4253 61.262 27.9293 61.262C28.1173 61.262 28.3153 61.248 28.5233 61.22C28.7353 61.188 28.9433 61.14 29.1473 61.076C29.3553 61.012 29.5533 60.928 29.7413 60.824L29.7833 61.718C29.6313 61.802 29.4553 61.876 29.2553 61.94C29.0553 62 28.8353 62.046 28.5953 62.078C28.3553 62.114 28.1013 62.132 27.8333 62.132ZM25.1273 59.222V58.514L29.2433 58.478L29.8493 58.706V59.222H25.1273ZM31.4734 62C31.4734 61.556 31.4734 61.13 31.4734 60.722C31.4734 60.314 31.4734 59.864 31.4734 59.372V58.772C31.4734 58.332 31.4734 57.882 31.4734 57.422C31.4734 56.962 31.4734 56.504 31.4734 56.048L32.3374 55.988L32.3674 57.2H32.4694C32.6334 56.836 32.8214 56.562 33.0334 56.378C33.2494 56.19 33.4674 56.064 33.6874 56C33.9074 55.936 34.1094 55.904 34.2934 55.904C34.4054 55.904 34.5174 55.912 34.6294 55.928C34.7414 55.944 34.8474 55.97 34.9474 56.006L34.8574 57.002C34.7254 56.978 34.6054 56.958 34.4974 56.942C34.3934 56.926 34.2714 56.918 34.1314 56.918C34.0154 56.918 33.8834 56.936 33.7354 56.972C33.5914 57.004 33.4414 57.074 33.2854 57.182C33.1334 57.286 32.9854 57.444 32.8414 57.656C32.6974 57.864 32.5714 58.142 32.4634 58.49V59.414C32.4634 59.882 32.4634 60.32 32.4634 60.728C32.4634 61.132 32.4634 61.556 32.4634 62H31.4734ZM38.7552 62.132C38.0432 62.132 37.4572 61.996 36.9972 61.724C36.5372 61.452 36.1952 61.08 35.9712 60.608C35.7472 60.136 35.6352 59.596 35.6352 58.988C35.6352 58.388 35.7452 57.856 35.9652 57.392C36.1852 56.928 36.5012 56.566 36.9132 56.306C37.3252 56.042 37.8172 55.91 38.3892 55.91C38.8932 55.91 39.3252 56.008 39.6852 56.204C40.0492 56.4 40.3292 56.688 40.5252 57.068C40.7212 57.444 40.8192 57.91 40.8192 58.466C40.8192 58.614 40.8152 58.748 40.8072 58.868C40.8032 58.984 40.7912 59.102 40.7712 59.222L39.9012 58.784C39.9092 58.72 39.9132 58.66 39.9132 58.604C39.9172 58.544 39.9192 58.486 39.9192 58.43C39.9192 57.866 39.7792 57.438 39.4992 57.146C39.2192 56.85 38.8532 56.702 38.4012 56.702C38.0372 56.702 37.7232 56.796 37.4592 56.984C37.1992 57.168 36.9972 57.424 36.8532 57.752C36.7092 58.08 36.6372 58.454 36.6372 58.874V59.012C36.6372 59.476 36.7172 59.876 36.8772 60.212C37.0372 60.548 37.2792 60.808 37.6032 60.992C37.9312 61.172 38.3472 61.262 38.8512 61.262C39.0392 61.262 39.2372 61.248 39.4452 61.22C39.6572 61.188 39.8652 61.14 40.0692 61.076C40.2772 61.012 40.4752 60.928 40.6632 60.824L40.7052 61.718C40.5532 61.802 40.3772 61.876 40.1772 61.94C39.9772 62 39.7572 62.046 39.5172 62.078C39.2772 62.114 39.0232 62.132 38.7552 62.132ZM36.0492 59.222V58.514L40.1652 58.478L40.7712 58.706V59.222H36.0492ZM44.7702 62C44.7702 61.524 44.7702 61.066 44.7702 60.626C44.7702 60.186 44.7702 59.702 44.7702 59.174V56.3C44.7702 55.768 44.7702 55.278 44.7702 54.83C44.7702 54.382 44.7702 53.92 44.7702 53.444H50.0862V54.374C49.6862 54.374 49.2562 54.374 48.7962 54.374C48.3402 54.374 47.8002 54.374 47.1762 54.374H45.2322L45.8322 53.6C45.8322 54.08 45.8322 54.544 45.8322 54.992C45.8322 55.436 45.8322 55.924 45.8322 56.456V59.012C45.8322 59.536 45.8322 60.02 45.8322 60.464C45.8322 60.904 45.8322 61.362 45.8322 61.838L45.2922 61.07H47.2722C47.7962 61.07 48.2902 61.07 48.7542 61.07C49.2222 61.07 49.6702 61.07 50.0982 61.07V62H44.7702ZM45.5982 58.118V57.212H47.2602C47.8122 57.212 48.2882 57.212 48.6882 57.212C49.0882 57.212 49.4742 57.212 49.8462 57.212V58.118C49.4542 58.118 49.0582 58.118 48.6582 58.118C48.2622 58.118 47.7942 58.118 47.2542 58.118H45.5982ZM53.1177 62C52.9777 61.628 52.8357 61.25 52.6917 60.866C52.5517 60.482 52.4137 60.11 52.2777 59.75L51.8817 58.694C51.7177 58.258 51.5517 57.818 51.3837 57.374C51.2197 56.926 51.0577 56.484 50.8977 56.048L51.9597 56.006C52.1357 56.51 52.3057 57.01 52.4697 57.506C52.6377 58.002 52.8077 58.502 52.9797 59.006L53.6337 60.914H53.7357L54.3897 59C54.5657 58.492 54.7357 57.994 54.8997 57.506C55.0677 57.014 55.2337 56.528 55.3977 56.048H56.4537C56.2897 56.484 56.1237 56.926 55.9557 57.374C55.7917 57.822 55.6297 58.266 55.4697 58.706L55.0737 59.774C54.9337 60.15 54.7957 60.522 54.6597 60.89C54.5237 61.254 54.3857 61.624 54.2457 62H53.1177ZM60.2591 62.132C59.5471 62.132 58.9611 61.996 58.5011 61.724C58.0411 61.452 57.6991 61.08 57.4751 60.608C57.2511 60.136 57.1391 59.596 57.1391 58.988C57.1391 58.388 57.2491 57.856 57.4691 57.392C57.6891 56.928 58.0051 56.566 58.4171 56.306C58.8291 56.042 59.3211 55.91 59.8931 55.91C60.3971 55.91 60.8291 56.008 61.1891 56.204C61.5531 56.4 61.8331 56.688 62.0291 57.068C62.2251 57.444 62.3231 57.91 62.3231 58.466C62.3231 58.614 62.3191 58.748 62.3111 58.868C62.3071 58.984 62.2951 59.102 62.2751 59.222L61.4051 58.784C61.4131 58.72 61.4171 58.66 61.4171 58.604C61.4211 58.544 61.4231 58.486 61.4231 58.43C61.4231 57.866 61.2831 57.438 61.0031 57.146C60.7231 56.85 60.3571 56.702 59.9051 56.702C59.5411 56.702 59.2271 56.796 58.9631 56.984C58.7031 57.168 58.5011 57.424 58.3571 57.752C58.2131 58.08 58.1411 58.454 58.1411 58.874V59.012C58.1411 59.476 58.2211 59.876 58.3811 60.212C58.5411 60.548 58.7831 60.808 59.1071 60.992C59.4351 61.172 59.8511 61.262 60.3551 61.262C60.5431 61.262 60.7411 61.248 60.9491 61.22C61.1611 61.188 61.3691 61.14 61.5731 61.076C61.7811 61.012 61.9791 60.928 62.1671 60.824L62.2091 61.718C62.0571 61.802 61.8811 61.876 61.6811 61.94C61.4811 62 61.2611 62.046 61.0211 62.078C60.7811 62.114 60.5271 62.132 60.2591 62.132ZM57.5531 59.222V58.514L61.6691 58.478L62.2751 58.706V59.222H57.5531ZM63.8992 62C63.8992 61.556 63.8992 61.13 63.8992 60.722C63.8992 60.314 63.8992 59.864 63.8992 59.372V58.772C63.8992 58.332 63.8992 57.882 63.8992 57.422C63.8992 56.962 63.8992 56.504 63.8992 56.048L64.7632 55.988L64.7932 57.2H64.8952C65.0592 56.836 65.2472 56.562 65.4592 56.378C65.6752 56.19 65.8932 56.064 66.1132 56C66.3332 55.936 66.5352 55.904 66.7192 55.904C66.8312 55.904 66.9432 55.912 67.0552 55.928C67.1672 55.944 67.2732 55.97 67.3732 56.006L67.2832 57.002C67.1512 56.978 67.0312 56.958 66.9232 56.942C66.8192 56.926 66.6972 56.918 66.5572 56.918C66.4412 56.918 66.3092 56.936 66.1612 56.972C66.0172 57.004 65.8672 57.074 65.7112 57.182C65.5592 57.286 65.4112 57.444 65.2672 57.656C65.1232 57.864 64.9972 58.142 64.8892 58.49V59.414C64.8892 59.882 64.8892 60.32 64.8892 60.728C64.8892 61.132 64.8892 61.556 64.8892 62H63.8992ZM69.2682 64.34C69.4282 63.948 69.5882 63.552 69.7482 63.152C69.9082 62.752 70.0682 62.356 70.2282 61.964V62.216C70.0762 61.808 69.9242 61.394 69.7722 60.974C69.6202 60.554 69.4702 60.146 69.3222 59.75L68.9262 58.67C68.7702 58.242 68.6082 57.804 68.4402 57.356C68.2762 56.908 68.1162 56.472 67.9602 56.048L69.0222 56.006C69.1942 56.522 69.3622 57.026 69.5262 57.518C69.6902 58.01 69.8582 58.512 70.0302 59.024L70.6602 60.938H70.7682L71.4582 59.018C71.6382 58.518 71.8162 58.022 71.9922 57.53C72.1682 57.038 72.3462 56.544 72.5262 56.048H73.5762C73.4482 56.368 73.3242 56.678 73.2042 56.978C73.0882 57.274 72.9582 57.602 72.8142 57.962C72.6742 58.322 72.5062 58.75 72.3102 59.246L71.6502 60.92C71.3502 61.68 71.0942 62.326 70.8822 62.858C70.6742 63.39 70.4842 63.872 70.3122 64.304L69.2682 64.34ZM77.278 62C77.278 61.524 77.278 61.066 77.278 60.626C77.278 60.186 77.278 59.702 77.278 59.174V56.3C77.278 55.768 77.278 55.278 77.278 54.83C77.278 54.382 77.278 53.92 77.278 53.444C77.602 53.444 78.02 53.444 78.532 53.444C79.048 53.444 79.638 53.444 80.302 53.444C80.954 53.444 81.492 53.53 81.916 53.702C82.344 53.874 82.664 54.142 82.876 54.506C83.088 54.866 83.194 55.328 83.194 55.892C83.194 56.416 83.096 56.882 82.9 57.29C82.708 57.694 82.384 58.012 81.928 58.244C81.476 58.476 80.858 58.592 80.074 58.592C79.874 58.592 79.66 58.592 79.432 58.592C79.204 58.592 78.982 58.592 78.766 58.592C78.55 58.592 78.362 58.592 78.202 58.592V57.692H79.87C80.382 57.692 80.8 57.632 81.124 57.512C81.452 57.392 81.694 57.2 81.85 56.936C82.006 56.672 82.084 56.326 82.084 55.898C82.084 55.546 82.026 55.266 81.91 55.058C81.798 54.85 81.648 54.696 81.46 54.596C81.276 54.492 81.076 54.424 80.86 54.392C80.644 54.36 80.434 54.344 80.23 54.344H77.818L78.346 53.6C78.346 54.08 78.346 54.544 78.346 54.992C78.346 55.436 78.346 55.924 78.346 56.456V59.174C78.346 59.702 78.346 60.186 78.346 60.626C78.346 61.066 78.346 61.524 78.346 62H77.278ZM86.1271 62.12C85.7711 62.12 85.4591 62.052 85.1911 61.916C84.9231 61.776 84.7131 61.578 84.5611 61.322C84.4131 61.066 84.3391 60.758 84.3391 60.398C84.3391 60.074 84.3971 59.802 84.5131 59.582C84.6291 59.358 84.7811 59.176 84.9691 59.036C85.1571 58.896 85.3651 58.788 85.5931 58.712C85.8211 58.632 86.0491 58.572 86.2771 58.532L88.1431 58.208C88.1591 57.804 88.1051 57.5 87.9811 57.296C87.8611 57.088 87.6911 56.948 87.4711 56.876C87.2511 56.804 87.0071 56.768 86.7391 56.768C86.6031 56.768 86.4571 56.778 86.3011 56.798C86.1451 56.818 85.9791 56.85 85.8031 56.894C85.6311 56.934 85.4491 56.986 85.2571 57.05C85.0651 57.114 84.8631 57.192 84.6511 57.284L84.5971 56.378C84.7411 56.318 84.9031 56.26 85.0831 56.204C85.2671 56.148 85.4611 56.098 85.6651 56.054C85.8731 56.006 86.0851 55.97 86.3011 55.946C86.5171 55.922 86.7351 55.91 86.9551 55.91C87.3991 55.91 87.7811 55.98 88.1011 56.12C88.4251 56.26 88.6731 56.48 88.8451 56.78C89.0171 57.08 89.1031 57.472 89.1031 57.956C89.1031 58.14 89.1031 58.374 89.1031 58.658C89.1031 58.942 89.1031 59.212 89.1031 59.468V60.242C89.1031 60.514 89.1031 60.792 89.1031 61.076C89.1031 61.356 89.1031 61.664 89.1031 62H88.2031L88.1491 61.154H88.0531C87.9291 61.314 87.7731 61.468 87.5851 61.616C87.3971 61.764 87.1791 61.886 86.9311 61.982C86.6871 62.074 86.4191 62.12 86.1271 62.12ZM86.4151 61.298C86.6271 61.298 86.8391 61.254 87.0511 61.166C87.2631 61.078 87.4611 60.948 87.6451 60.776C87.8331 60.6 87.9911 60.38 88.1191 60.116L88.1251 58.832C88.0611 58.868 87.9751 58.904 87.8671 58.94C87.7631 58.976 87.6051 59.018 87.3931 59.066C87.1851 59.11 86.8951 59.166 86.5231 59.234C86.2951 59.274 86.0931 59.34 85.9171 59.432C85.7411 59.52 85.6011 59.642 85.4971 59.798C85.3971 59.95 85.3471 60.136 85.3471 60.356C85.3471 60.7 85.4491 60.944 85.6531 61.088C85.8611 61.228 86.1151 61.298 86.4151 61.298ZM91.0164 62C91.0164 61.556 91.0164 61.13 91.0164 60.722C91.0164 60.314 91.0164 59.864 91.0164 59.372V58.772C91.0164 58.332 91.0164 57.882 91.0164 57.422C91.0164 56.962 91.0164 56.504 91.0164 56.048L91.8804 55.988L91.9104 57.2H92.0124C92.1764 56.836 92.3644 56.562 92.5764 56.378C92.7924 56.19 93.0104 56.064 93.2304 56C93.4504 55.936 93.6524 55.904 93.8364 55.904C93.9484 55.904 94.0604 55.912 94.1724 55.928C94.2844 55.944 94.3904 55.97 94.4904 56.006L94.4004 57.002C94.2684 56.978 94.1484 56.958 94.0404 56.942C93.9364 56.926 93.8144 56.918 93.6744 56.918C93.5584 56.918 93.4264 56.936 93.2784 56.972C93.1344 57.004 92.9844 57.074 92.8284 57.182C92.6764 57.286 92.5284 57.444 92.3844 57.656C92.2404 57.864 92.1144 58.142 92.0064 58.49V59.414C92.0064 59.882 92.0064 60.32 92.0064 60.728C92.0064 61.132 92.0064 61.556 92.0064 62H91.0164ZM98.0653 62.132C97.6693 62.132 97.3333 62.064 97.0573 61.928C96.7813 61.788 96.5713 61.578 96.4273 61.298C96.2873 61.014 96.2173 60.652 96.2173 60.212C96.2173 59.864 96.2173 59.52 96.2173 59.18C96.2173 58.836 96.2173 58.5 96.2173 58.172C96.2173 57.84 96.2173 57.522 96.2173 57.218C96.2173 56.91 96.2173 56.616 96.2173 56.336C96.2173 55.928 96.2173 55.55 96.2173 55.202C96.2173 54.854 96.2173 54.492 96.2173 54.116L97.1953 53.9C97.1953 54.196 97.1953 54.47 97.1953 54.722C97.1953 54.974 97.1953 55.228 97.1953 55.484C97.1953 55.74 97.1953 56.024 97.1953 56.336V59.978C97.1953 60.406 97.2853 60.728 97.4653 60.944C97.6493 61.16 97.9293 61.268 98.3053 61.268C98.4533 61.268 98.6153 61.244 98.7913 61.196C98.9673 61.144 99.1233 61.064 99.2593 60.956L99.3433 61.826C99.2633 61.886 99.1553 61.94 99.0193 61.988C98.8833 62.032 98.7333 62.066 98.5693 62.09C98.4053 62.118 98.2373 62.132 98.0653 62.132ZM95.0713 56.834V56.048H99.2833V56.834C98.8833 56.834 98.4793 56.834 98.0713 56.834C97.6673 56.834 97.2733 56.834 96.8893 56.834H96.4813H95.0713ZM103.106 62C103.106 61.524 103.106 61.066 103.106 60.626C103.106 60.186 103.106 59.702 103.106 59.174V56.3C103.106 55.768 103.106 55.278 103.106 54.83C103.106 54.382 103.106 53.92 103.106 53.444C103.334 53.444 103.596 53.444 103.892 53.444C104.192 53.444 104.518 53.444 104.87 53.444C105.226 53.444 105.602 53.444 105.998 53.444C106.65 53.444 107.192 53.522 107.624 53.678C108.06 53.83 108.386 54.076 108.602 54.416C108.822 54.756 108.932 55.204 108.932 55.76C108.932 56.228 108.84 56.656 108.656 57.044C108.476 57.432 108.174 57.744 107.75 57.98C107.326 58.212 106.752 58.33 106.028 58.334L106.37 57.86L107.72 59.546C107.932 59.806 108.156 60.084 108.392 60.38C108.628 60.676 108.858 60.966 109.082 61.25C109.306 61.53 109.506 61.78 109.682 62H108.41C108.126 61.64 107.852 61.292 107.588 60.956C107.328 60.62 107.07 60.292 106.814 59.972L105.278 57.992L105.944 58.526H103.982V57.632H105.608C106.108 57.632 106.52 57.574 106.844 57.458C107.168 57.342 107.41 57.156 107.57 56.9C107.73 56.64 107.81 56.296 107.81 55.868C107.81 55.512 107.752 55.232 107.636 55.028C107.524 54.82 107.374 54.668 107.186 54.572C107.002 54.476 106.802 54.414 106.586 54.386C106.37 54.358 106.162 54.344 105.962 54.344H103.442L104.168 53.6C104.168 54.092 104.168 54.56 104.168 55.004C104.168 55.448 104.168 55.932 104.168 56.456V59.174C104.168 59.702 104.168 60.186 104.168 60.626C104.168 61.066 104.168 61.524 104.168 62H103.106ZM113.357 62.132C112.645 62.132 112.059 61.996 111.599 61.724C111.139 61.452 110.797 61.08 110.573 60.608C110.349 60.136 110.237 59.596 110.237 58.988C110.237 58.388 110.347 57.856 110.567 57.392C110.787 56.928 111.103 56.566 111.515 56.306C111.927 56.042 112.419 55.91 112.991 55.91C113.495 55.91 113.927 56.008 114.287 56.204C114.651 56.4 114.931 56.688 115.127 57.068C115.323 57.444 115.421 57.91 115.421 58.466C115.421 58.614 115.417 58.748 115.409 58.868C115.405 58.984 115.393 59.102 115.373 59.222L114.503 58.784C114.511 58.72 114.515 58.66 114.515 58.604C114.519 58.544 114.521 58.486 114.521 58.43C114.521 57.866 114.381 57.438 114.101 57.146C113.821 56.85 113.455 56.702 113.003 56.702C112.639 56.702 112.325 56.796 112.061 56.984C111.801 57.168 111.599 57.424 111.455 57.752C111.311 58.08 111.239 58.454 111.239 58.874V59.012C111.239 59.476 111.319 59.876 111.479 60.212C111.639 60.548 111.881 60.808 112.205 60.992C112.533 61.172 112.949 61.262 113.453 61.262C113.641 61.262 113.839 61.248 114.047 61.22C114.259 61.188 114.467 61.14 114.671 61.076C114.879 61.012 115.077 60.928 115.265 60.824L115.307 61.718C115.155 61.802 114.979 61.876 114.779 61.94C114.579 62 114.359 62.046 114.119 62.078C113.879 62.114 113.625 62.132 113.357 62.132ZM110.651 59.222V58.514L114.767 58.478L115.373 58.706V59.222H110.651ZM118.333 62C118.193 61.628 118.051 61.25 117.907 60.866C117.767 60.482 117.629 60.11 117.493 59.75L117.097 58.694C116.933 58.258 116.767 57.818 116.599 57.374C116.435 56.926 116.273 56.484 116.113 56.048L117.175 56.006C117.351 56.51 117.521 57.01 117.685 57.506C117.853 58.002 118.023 58.502 118.195 59.006L118.849 60.914H118.951L119.605 59C119.781 58.492 119.951 57.994 120.115 57.506C120.283 57.014 120.449 56.528 120.613 56.048H121.669C121.505 56.484 121.339 56.926 121.171 57.374C121.007 57.822 120.845 58.266 120.685 58.706L120.289 59.774C120.149 60.15 120.011 60.522 119.875 60.89C119.739 61.254 119.601 61.624 119.461 62H118.333ZM124.607 62.132C124.359 62.132 124.109 62.112 123.857 62.072C123.609 62.032 123.375 61.98 123.155 61.916C122.935 61.848 122.743 61.772 122.579 61.688L122.657 60.758C122.841 60.862 123.037 60.954 123.245 61.034C123.457 61.11 123.675 61.17 123.899 61.214C124.127 61.254 124.355 61.274 124.583 61.274C124.803 61.274 125.005 61.25 125.189 61.202C125.377 61.15 125.525 61.058 125.633 60.926C125.745 60.79 125.801 60.594 125.801 60.338C125.801 60.17 125.753 60.032 125.657 59.924C125.561 59.816 125.399 59.718 125.171 59.63C124.947 59.542 124.643 59.444 124.259 59.336C123.943 59.248 123.661 59.14 123.413 59.012C123.165 58.884 122.969 58.712 122.825 58.496C122.685 58.28 122.615 57.998 122.615 57.65C122.615 57.11 122.791 56.686 123.143 56.378C123.499 56.066 123.977 55.91 124.577 55.91C124.825 55.91 125.065 55.932 125.297 55.976C125.529 56.016 125.743 56.07 125.939 56.138C126.135 56.206 126.305 56.278 126.449 56.354L126.365 57.284C126.173 57.164 125.975 57.066 125.771 56.99C125.567 56.91 125.371 56.854 125.183 56.822C124.995 56.786 124.829 56.768 124.685 56.768C124.521 56.768 124.357 56.792 124.193 56.84C124.033 56.884 123.899 56.968 123.791 57.092C123.683 57.212 123.629 57.386 123.629 57.614C123.629 57.778 123.667 57.916 123.743 58.028C123.819 58.14 123.951 58.24 124.139 58.328C124.327 58.416 124.587 58.508 124.919 58.604C125.315 58.72 125.653 58.842 125.933 58.97C126.217 59.094 126.435 59.258 126.587 59.462C126.739 59.666 126.815 59.948 126.815 60.308C126.815 60.656 126.739 60.968 126.587 61.244C126.435 61.516 126.197 61.732 125.873 61.892C125.549 62.052 125.127 62.132 124.607 62.132ZM134.038 62.132C133.242 62.132 132.594 61.996 132.094 61.724C131.598 61.448 131.232 61.062 130.996 60.566C130.764 60.066 130.648 59.484 130.648 58.82C130.648 58.652 130.648 58.436 130.648 58.172C130.648 57.904 130.648 57.608 130.648 57.284C130.648 56.96 130.648 56.634 130.648 56.306C130.648 55.766 130.648 55.274 130.648 54.83C130.648 54.382 130.648 53.92 130.648 53.444H131.728C131.728 53.92 131.728 54.382 131.728 54.83C131.728 55.274 131.728 55.766 131.728 56.306V58.712C131.728 59.228 131.804 59.672 131.956 60.044C132.108 60.416 132.352 60.702 132.688 60.902C133.028 61.098 133.478 61.196 134.038 61.196C134.602 61.196 135.05 61.098 135.382 60.902C135.718 60.702 135.96 60.416 136.108 60.044C136.256 59.672 136.33 59.224 136.33 58.7V56.306C136.33 55.766 136.33 55.274 136.33 54.83C136.33 54.382 136.33 53.92 136.33 53.444H137.41C137.41 53.92 137.41 54.382 137.41 54.83C137.41 55.274 137.41 55.766 137.41 56.306C137.41 56.634 137.41 56.962 137.41 57.29C137.41 57.614 137.41 57.91 137.41 58.178C137.41 58.446 137.41 58.66 137.41 58.82C137.41 59.484 137.292 60.066 137.056 60.566C136.82 61.062 136.454 61.448 135.958 61.724C135.462 61.996 134.822 62.132 134.038 62.132ZM139.45 64.34C139.45 63.9 139.45 63.468 139.45 63.044C139.45 62.624 139.45 62.168 139.45 61.676V58.772C139.45 58.332 139.45 57.882 139.45 57.422C139.45 56.962 139.45 56.504 139.45 56.048L140.35 55.988L140.374 56.762H140.476C140.596 56.606 140.748 56.464 140.932 56.336C141.116 56.204 141.326 56.1 141.562 56.024C141.802 55.944 142.064 55.904 142.348 55.904C142.892 55.904 143.354 56.04 143.734 56.312C144.118 56.58 144.41 56.948 144.61 57.416C144.81 57.884 144.91 58.414 144.91 59.006C144.91 59.562 144.816 60.078 144.628 60.554C144.444 61.026 144.162 61.408 143.782 61.7C143.406 61.988 142.934 62.132 142.366 62.132C142.102 62.132 141.858 62.096 141.634 62.024C141.41 61.956 141.206 61.858 141.022 61.73C140.842 61.598 140.678 61.438 140.53 61.25H140.44V61.718C140.44 62.186 140.44 62.622 140.44 63.026C140.44 63.434 140.44 63.86 140.44 64.304L139.45 64.34ZM142.066 61.244C142.494 61.244 142.842 61.138 143.11 60.926C143.382 60.714 143.58 60.44 143.704 60.104C143.832 59.764 143.896 59.4 143.896 59.012C143.896 58.608 143.828 58.24 143.692 57.908C143.56 57.572 143.358 57.304 143.086 57.104C142.814 56.904 142.468 56.804 142.048 56.804C141.84 56.804 141.636 56.836 141.436 56.9C141.236 56.96 141.05 57.052 140.878 57.176C140.71 57.296 140.564 57.446 140.44 57.626V60.272C140.56 60.476 140.698 60.65 140.854 60.794C141.014 60.938 141.194 61.05 141.394 61.13C141.594 61.206 141.818 61.244 142.066 61.244ZM151.224 58.658L149.358 55.496C149.158 55.16 148.966 54.836 148.782 54.524C148.598 54.208 148.386 53.848 148.146 53.444H149.388C149.608 53.828 149.796 54.158 149.952 54.434C150.108 54.71 150.256 54.972 150.396 55.22C150.536 55.464 150.69 55.734 150.858 56.03L151.686 57.488H151.794L152.598 56.084C152.778 55.768 152.94 55.482 153.084 55.226C153.232 54.97 153.386 54.704 153.546 54.428C153.706 54.148 153.894 53.82 154.11 53.444H155.328C155.124 53.792 154.92 54.138 154.716 54.482C154.516 54.822 154.318 55.158 154.122 55.49L152.256 58.658H151.224ZM151.2 62C151.2 61.524 151.2 61.066 151.2 60.626C151.2 60.186 151.2 59.702 151.2 59.174V57.752H152.286V59.174C152.286 59.702 152.286 60.186 152.286 60.626C152.286 61.066 152.286 61.524 152.286 62H151.2ZM158.137 62.132C157.645 62.132 157.211 62.048 156.835 61.88C156.463 61.708 156.151 61.476 155.899 61.184C155.647 60.892 155.455 60.558 155.323 60.182C155.195 59.802 155.131 59.404 155.131 58.988C155.131 58.392 155.251 57.864 155.491 57.404C155.735 56.94 156.079 56.574 156.523 56.306C156.971 56.038 157.503 55.904 158.119 55.904C158.595 55.904 159.017 55.982 159.385 56.138C159.753 56.294 160.065 56.512 160.321 56.792C160.577 57.072 160.771 57.4 160.903 57.776C161.035 58.148 161.101 58.552 161.101 58.988C161.101 59.576 160.981 60.108 160.741 60.584C160.501 61.06 160.159 61.438 159.715 61.718C159.275 61.994 158.749 62.132 158.137 62.132ZM158.137 61.268C158.573 61.268 158.935 61.16 159.223 60.944C159.511 60.728 159.727 60.446 159.871 60.098C160.015 59.75 160.087 59.38 160.087 58.988C160.087 58.54 160.007 58.15 159.847 57.818C159.687 57.486 159.461 57.228 159.169 57.044C158.877 56.86 158.531 56.768 158.131 56.768C157.699 56.768 157.335 56.866 157.039 57.062C156.743 57.258 156.519 57.524 156.367 57.86C156.219 58.196 156.145 58.572 156.145 58.988C156.145 59.38 156.217 59.75 156.361 60.098C156.509 60.446 156.731 60.728 157.027 60.944C157.323 61.16 157.693 61.268 158.137 61.268ZM164.409 62.132C163.777 62.132 163.315 61.95 163.023 61.586C162.731 61.222 162.585 60.694 162.585 60.002C162.585 59.738 162.585 59.51 162.585 59.318C162.585 59.122 162.585 58.93 162.585 58.742C162.585 58.386 162.585 58.06 162.585 57.764C162.585 57.464 162.585 57.176 162.585 56.9C162.585 56.624 162.585 56.34 162.585 56.048L163.575 56.006C163.575 56.446 163.575 56.878 163.575 57.302C163.575 57.726 163.575 58.172 163.575 58.64V59.768C163.575 60.24 163.661 60.6 163.833 60.848C164.005 61.092 164.311 61.214 164.751 61.214C165.007 61.214 165.241 61.16 165.453 61.052C165.665 60.94 165.859 60.794 166.035 60.614C166.211 60.434 166.371 60.234 166.515 60.014V58.64C166.515 58.172 166.515 57.732 166.515 57.32C166.515 56.908 166.515 56.484 166.515 56.048H167.505C167.505 56.484 167.505 56.912 167.505 57.332C167.505 57.752 167.505 58.222 167.505 58.742V59.372C167.505 59.864 167.505 60.314 167.505 60.722C167.505 61.13 167.505 61.556 167.505 62H166.641L166.605 60.95H166.497C166.373 61.13 166.211 61.312 166.011 61.496C165.815 61.676 165.583 61.828 165.315 61.952C165.047 62.072 164.745 62.132 164.409 62.132ZM169.438 62C169.438 61.556 169.438 61.13 169.438 60.722C169.438 60.314 169.438 59.864 169.438 59.372V58.772C169.438 58.332 169.438 57.882 169.438 57.422C169.438 56.962 169.438 56.504 169.438 56.048L170.302 55.988L170.332 57.2H170.434C170.598 56.836 170.786 56.562 170.998 56.378C171.214 56.19 171.432 56.064 171.652 56C171.872 55.936 172.074 55.904 172.258 55.904C172.37 55.904 172.482 55.912 172.594 55.928C172.706 55.944 172.812 55.97 172.912 56.006L172.822 57.002C172.69 56.978 172.57 56.958 172.462 56.942C172.358 56.926 172.236 56.918 172.096 56.918C171.98 56.918 171.848 56.936 171.7 56.972C171.556 57.004 171.406 57.074 171.25 57.182C171.098 57.286 170.95 57.444 170.806 57.656C170.662 57.864 170.536 58.142 170.428 58.49V59.414C170.428 59.882 170.428 60.32 170.428 60.728C170.428 61.132 170.428 61.556 170.428 62H169.438ZM176.606 62C176.606 61.524 176.606 61.066 176.606 60.626C176.606 60.186 176.606 59.702 176.606 59.174V56.3C176.606 55.768 176.606 55.278 176.606 54.83C176.606 54.382 176.606 53.92 176.606 53.444C176.834 53.444 177.096 53.444 177.392 53.444C177.692 53.444 178.018 53.444 178.37 53.444C178.726 53.444 179.102 53.444 179.498 53.444C180.15 53.444 180.692 53.522 181.124 53.678C181.56 53.83 181.886 54.076 182.102 54.416C182.322 54.756 182.432 55.204 182.432 55.76C182.432 56.228 182.34 56.656 182.156 57.044C181.976 57.432 181.674 57.744 181.25 57.98C180.826 58.212 180.252 58.33 179.528 58.334L179.87 57.86L181.22 59.546C181.432 59.806 181.656 60.084 181.892 60.38C182.128 60.676 182.358 60.966 182.582 61.25C182.806 61.53 183.006 61.78 183.182 62H181.91C181.626 61.64 181.352 61.292 181.088 60.956C180.828 60.62 180.57 60.292 180.314 59.972L178.778 57.992L179.444 58.526H177.482V57.632H179.108C179.608 57.632 180.02 57.574 180.344 57.458C180.668 57.342 180.91 57.156 181.07 56.9C181.23 56.64 181.31 56.296 181.31 55.868C181.31 55.512 181.252 55.232 181.136 55.028C181.024 54.82 180.874 54.668 180.686 54.572C180.502 54.476 180.302 54.414 180.086 54.386C179.87 54.358 179.662 54.344 179.462 54.344H176.942L177.668 53.6C177.668 54.092 177.668 54.56 177.668 55.004C177.668 55.448 177.668 55.932 177.668 56.456V59.174C177.668 59.702 177.668 60.186 177.668 60.626C177.668 61.066 177.668 61.524 177.668 62H176.606ZM184.579 62C184.579 61.556 184.579 61.13 184.579 60.722C184.579 60.314 184.579 59.864 184.579 59.372V58.772C184.579 58.416 184.579 58.088 184.579 57.788C184.579 57.484 184.579 57.192 184.579 56.912C184.579 56.628 184.579 56.34 184.579 56.048L185.575 56.012C185.575 56.308 185.575 56.6 185.575 56.888C185.575 57.172 185.575 57.468 185.575 57.776C185.575 58.08 185.575 58.412 185.575 58.772V59.372C185.575 59.864 185.575 60.314 185.575 60.722C185.575 61.13 185.575 61.556 185.575 62H184.579ZM185.059 54.674C184.843 54.674 184.667 54.614 184.531 54.494C184.395 54.374 184.327 54.19 184.327 53.942C184.327 53.698 184.395 53.516 184.531 53.396C184.667 53.272 184.847 53.21 185.071 53.21C185.291 53.21 185.467 53.274 185.599 53.402C185.731 53.526 185.797 53.706 185.797 53.942C185.797 54.19 185.731 54.374 185.599 54.494C185.467 54.614 185.287 54.674 185.059 54.674ZM189.767 62.132C189.199 62.132 188.727 61.988 188.351 61.7C187.975 61.408 187.693 61.026 187.505 60.554C187.317 60.078 187.223 59.562 187.223 59.006C187.223 58.414 187.323 57.884 187.523 57.416C187.723 56.948 188.013 56.58 188.393 56.312C188.777 56.04 189.241 55.904 189.785 55.904C190.061 55.904 190.313 55.942 190.541 56.018C190.773 56.09 190.977 56.188 191.153 56.312C191.329 56.432 191.475 56.566 191.591 56.714H191.693V56.078C191.693 55.574 191.693 55.086 191.693 54.614C191.693 54.138 191.693 53.672 191.693 53.216L192.683 53.096C192.683 53.58 192.683 54.066 192.683 54.554C192.683 55.038 192.683 55.546 192.683 56.078V59.372C192.683 59.864 192.683 60.314 192.683 60.722C192.683 61.13 192.683 61.556 192.683 62H191.819L191.771 61.184H191.675C191.519 61.388 191.345 61.56 191.153 61.7C190.961 61.84 190.749 61.946 190.517 62.018C190.289 62.094 190.039 62.132 189.767 62.132ZM190.067 61.244C190.315 61.244 190.539 61.206 190.739 61.13C190.939 61.05 191.117 60.938 191.273 60.794C191.433 60.65 191.573 60.476 191.693 60.272V57.626C191.569 57.446 191.421 57.296 191.249 57.176C191.081 57.052 190.897 56.96 190.697 56.9C190.497 56.836 190.293 56.804 190.085 56.804C189.665 56.804 189.319 56.904 189.047 57.104C188.775 57.304 188.571 57.572 188.435 57.908C188.303 58.24 188.237 58.608 188.237 59.012C188.237 59.4 188.301 59.764 188.429 60.104C188.557 60.44 188.755 60.714 189.023 60.926C189.291 61.138 189.639 61.244 190.067 61.244ZM197.263 62.132C196.551 62.132 195.965 61.996 195.505 61.724C195.045 61.452 194.703 61.08 194.479 60.608C194.255 60.136 194.143 59.596 194.143 58.988C194.143 58.388 194.253 57.856 194.473 57.392C194.693 56.928 195.009 56.566 195.421 56.306C195.833 56.042 196.325 55.91 196.897 55.91C197.401 55.91 197.833 56.008 198.193 56.204C198.557 56.4 198.837 56.688 199.033 57.068C199.229 57.444 199.327 57.91 199.327 58.466C199.327 58.614 199.323 58.748 199.315 58.868C199.311 58.984 199.299 59.102 199.279 59.222L198.409 58.784C198.417 58.72 198.421 58.66 198.421 58.604C198.425 58.544 198.427 58.486 198.427 58.43C198.427 57.866 198.287 57.438 198.007 57.146C197.727 56.85 197.361 56.702 196.909 56.702C196.545 56.702 196.231 56.796 195.967 56.984C195.707 57.168 195.505 57.424 195.361 57.752C195.217 58.08 195.145 58.454 195.145 58.874V59.012C195.145 59.476 195.225 59.876 195.385 60.212C195.545 60.548 195.787 60.808 196.111 60.992C196.439 61.172 196.855 61.262 197.359 61.262C197.547 61.262 197.745 61.248 197.953 61.22C198.165 61.188 198.373 61.14 198.577 61.076C198.785 61.012 198.983 60.928 199.171 60.824L199.213 61.718C199.061 61.802 198.885 61.876 198.685 61.94C198.485 62 198.265 62.046 198.025 62.078C197.785 62.114 197.531 62.132 197.263 62.132ZM194.557 59.222V58.514L198.673 58.478L199.279 58.706V59.222H194.557Z" fill="#E01212"/>
</svg>
